<svg xmlns="http://www.w3.org/2000/svg" width="451" height="127" fill="none" viewBox="0 0 451 127">
  <path fill="#000" fill-rule="evenodd" d="M21.7998 125.799h-21l18.7-96.0998h40.3c12.1 0 21 3.2 26.5 9.5 5.6 6.4 7.2 15.2 5 26.7-.9 4.7-2.5 9-4.6 12.9-2.2 3.9-5 7.5-8.5 10.7-4.2 3.9-8.8 6.7-13.9 8.4-5.1 1.7-11.6 2.4998-19.6 2.4998h-18l-4.9 25.4Zm45.9-76.5998c-2.7-2.9-8-4.4-15.9-4.4h-14.3l-7.8 40.3h12.7c8.4 0 14.7-1.6 18.9-4.8 4.1-3.2 6.9-8.5 8.4-15.9 1.3-7.2.6-12.2-2-15.2Z" clip-rule="evenodd"/>
  <path fill="#000" d="M106.6 4.09961h20.8l-5 25.59999h18.5c11.7 0 19.7 2 24.1 6.1 4.4 4.1 5.8 10.7 4 19.8L160.3 100.4h-21.1l8.3-42.6004c.9-4.8.6-8.1-1-9.9-1.6-1.8-5.1-2.6-10.4-2.6h-16.6L108.8 100.4H87.9004L106.6 4.09961Z"/>
  <path fill="#000" fill-rule="evenodd" d="M185.2 125.799h-21l18.7-96.0998h40.4c12.1 0 21 3.2 26.5 9.5 5.6 6.4 7.2 15.2 5 26.7-.9 4.7-2.5 9-4.6 12.9-2.2 3.9-5 7.5-8.5 10.7-4.2 3.9-8.8 6.7-13.9 8.4-5.1 1.7-11.6 2.4998-19.6 2.4998h-18l-5 25.4Zm46-76.5998c-2.7-2.9-8-4.4-15.9-4.4h-14.4l-7.8 40.3h12.7c8.4 0 14.7-1.6 18.9-4.8 4.1-3.2 6.9-8.5 8.4-15.9 1.3-7.2.7-12.2-1.9-15.2Z" clip-rule="evenodd"/>
</svg>
